<svg width="95" height="32" viewBox="0 0 95 32" fill="none" xmlns="http://www.w3.org/2000/svg">
<path d="M24.6252 14.0626C23.9178 13.3566 22.9592 12.9601 21.9599 12.9601C20.9605 12.9601 20.0019 13.3566 19.2945 14.0626L18.5445 14.8126C18.119 15.2381 17.7895 15.7498 17.5782 16.3133C17.3669 16.8768 17.2787 17.479 17.3195 18.0794L17.3452 18.4544C17.3574 18.6384 17.3259 18.8227 17.2533 18.9922C17.1806 19.1616 17.0688 19.3115 16.927 19.4294L15.7171 20.4563L14.9814 19.8313C14.7948 19.6755 14.6476 19.4778 14.552 19.2542C14.4564 19.0307 14.4151 18.7877 14.4314 18.5451L14.4571 18.1701C14.4943 17.623 14.4139 17.0744 14.2214 16.561C14.0289 16.0476 13.7286 15.5814 13.3408 15.1938L10.7639 12.6169L9.71768 13.6632L11.4214 15.3663L10.6252 16.1632L8.92205 14.4601L7.83768 15.5426L9.5358 17.2413L8.74018 18.0369L7.04205 16.3382L5.96143 17.4188L8.5383 19.9957C8.92592 20.3835 9.3921 20.6838 9.90548 20.8763C10.4189 21.0688 10.9675 21.1492 11.5146 21.1119L11.8896 21.0863C12.1321 21.07 12.3751 21.1113 12.5987 21.2069C12.8223 21.3025 13.02 21.4496 13.1758 21.6363L13.6564 22.2026L9.84393 25.4394C9.46248 25.758 9.1884 26.1864 9.05897 26.6662C8.92954 27.1461 8.95102 27.6542 9.12051 28.1214C9.28999 28.5886 9.59925 28.9922 10.0062 29.2775C10.4132 29.5628 10.8982 29.7158 11.3952 29.7157C11.4314 29.7157 11.4677 29.7157 11.5039 29.7157C11.8392 29.7001 12.1675 29.615 12.4681 29.4657C12.7687 29.3165 13.0351 29.1064 13.2502 28.8488L16.2721 25.2832L19.1889 28.7207C19.3711 28.9383 19.5965 29.1158 19.8508 29.2418C20.1052 29.3678 20.3829 29.4395 20.6664 29.4526C20.6971 29.4526 20.7289 29.4526 20.7577 29.4526C21.1779 29.453 21.588 29.324 21.9322 29.0831C22.2765 28.8422 22.5381 28.501 22.6816 28.1061C22.825 27.7112 22.8433 27.2816 22.7339 26.8759C22.6245 26.4702 22.3927 26.1081 22.0702 25.8388L18.4208 22.7501L19.2602 21.7594C19.3781 21.6184 19.5276 21.5073 19.6966 21.4351C19.8656 21.3628 20.0493 21.3316 20.2327 21.3438L20.6077 21.3688C21.2083 21.4099 21.8108 21.3216 22.3744 21.1101C22.9381 20.8986 23.4498 20.5686 23.8752 20.1426L24.6252 19.3926C25.3309 18.6852 25.7273 17.7268 25.7273 16.7276C25.7273 15.7283 25.3309 14.7699 24.6252 14.0626ZM23.8302 18.5976L23.0802 19.3476C22.7683 19.6596 22.3931 19.9012 21.98 20.0561C21.5669 20.2111 21.1254 20.2757 20.6852 20.2457L20.3102 20.2201C19.9502 20.1954 19.5895 20.2561 19.2575 20.3973C18.9254 20.5385 18.6315 20.7562 18.3996 21.0326L12.3889 28.1251C12.2738 28.2637 12.131 28.3767 11.9697 28.457C11.8083 28.5372 11.632 28.5829 11.452 28.5911C11.272 28.5993 11.0923 28.5698 10.9244 28.5045C10.7564 28.4392 10.6039 28.3396 10.4767 28.212C10.3495 28.0845 10.2503 27.9317 10.1855 27.7636C10.1207 27.5955 10.0917 27.4157 10.1003 27.2357C10.109 27.0557 10.1552 26.8795 10.2359 26.7184C10.3166 26.5573 10.43 26.4148 10.5689 26.3001L17.6496 20.2894C17.9268 20.0572 18.1452 19.7627 18.2871 19.4301C18.4289 19.0974 18.4902 18.7359 18.4658 18.3751L18.4402 18.0001C18.4102 17.5599 18.4749 17.1184 18.6298 16.7053C18.7847 16.2922 19.0263 15.917 19.3383 15.6051L20.0883 14.8551C20.3339 14.6095 20.6254 14.4147 20.9463 14.2818C21.2671 14.1489 21.611 14.0805 21.9583 14.0805C22.3056 14.0805 22.6495 14.1489 22.9703 14.2818C23.2912 14.4147 23.5827 14.6095 23.8283 14.8551C24.0739 15.1006 24.2687 15.3922 24.4016 15.713C24.5345 16.0339 24.6029 16.3778 24.6029 16.7251C24.6029 17.0724 24.5345 17.4163 24.4016 17.7371C24.2687 18.058 24.0739 18.3495 23.8283 18.5951L23.8302 18.5976Z" fill="#E5F1A9"/>
<path d="M15.7432 11.1356C15.7857 11.1356 17.0664 11.1188 17.3057 11.0981C18.9932 10.9525 20.3226 10.3831 21.2707 9.40002C22.7707 7.84689 22.8995 5.66689 22.8445 4.50564C22.8281 4.13297 22.6727 3.77994 22.409 3.51617C22.1452 3.25239 21.7922 3.097 21.4195 3.08064C20.2576 3.02564 18.0782 3.15627 16.5251 4.65377C16.3639 4.80999 16.2135 4.97704 16.0751 5.15377C15.9367 4.97704 15.7863 4.80999 15.6251 4.65377C14.072 3.15377 11.892 3.02502 10.7307 3.08064C10.3581 3.097 10.005 3.25239 9.74126 3.51617C9.47749 3.77994 9.3221 4.13297 9.30574 4.50564C9.25074 5.66689 9.38136 7.84627 10.8789 9.40002C11.9914 10.5519 13.6251 11.1356 15.7432 11.1356ZM17.3057 5.46377C18.412 4.39752 19.9732 4.19564 20.997 4.19564C21.1295 4.19564 21.2532 4.19877 21.3657 4.20439C21.4591 4.20897 21.5473 4.24823 21.6132 4.31447C21.6791 4.38071 21.7179 4.46917 21.722 4.56252C21.7682 5.54252 21.667 7.37502 20.462 8.62502C19.7295 9.38439 18.6757 9.83564 17.3239 9.97127C17.3476 9.866 17.3601 9.75853 17.3614 9.65064C17.3757 8.30814 17.1595 7.15564 16.7164 6.20314C16.8822 5.93344 17.0806 5.68512 17.307 5.46377H17.3057ZM10.4307 4.56252C10.4356 4.46993 10.4745 4.3824 10.5401 4.31684C10.6056 4.25128 10.6931 4.21234 10.7857 4.20752C11.7657 4.16064 13.5982 4.26252 14.8482 5.46689C15.692 6.27939 16.1545 7.48877 16.2282 9.06252C15.7361 8.3436 15.0345 7.79368 14.2189 7.48752L13.872 8.53627C13.9257 8.55502 14.9689 8.92252 15.5007 10.0106C13.8245 9.97002 12.5426 9.50314 11.6932 8.62252C10.4857 7.37002 10.3839 5.53939 10.4307 4.56252Z" fill="#E5F1A9"/>
<g clip-path="url(#clip0_36_491)">
<path d="M43.408 25.096C42.832 25.096 42.312 24.856 41.848 24.376C41.384 23.896 41.152 23.104 41.152 22C41.152 21.104 41.256 20.224 41.464 19.36C41.672 18.496 41.904 17.624 42.16 16.744C42.432 15.848 42.656 14.928 42.832 13.984C43.024 13.024 43.088 12.016 43.024 10.96C42.592 11.024 42.168 11.136 41.752 11.296C41.336 11.456 40.928 11.688 40.528 11.992C40.528 10.984 40.616 10.168 40.792 9.544C40.968 8.904 41.312 8.44 41.824 8.152C42.336 7.864 43.096 7.72 44.104 7.72C44.648 7.72 45.256 7.76 45.928 7.84C46.6 7.92 47.288 8 47.992 8.08C48.712 8.16 49.392 8.2 50.032 8.2C50.656 8.2 51.216 8.144 51.712 8.032C52.208 7.904 52.592 7.68 52.864 7.36C53.184 7.568 53.424 7.856 53.584 8.224C53.76 8.576 53.848 8.96 53.848 9.376C53.848 9.808 53.744 10.232 53.536 10.648C53.344 11.048 53.04 11.384 52.624 11.656C52.208 11.912 51.664 12.04 50.992 12.04C50.288 12.04 49.52 11.928 48.688 11.704C47.856 11.48 47 11.288 46.12 11.128C46.2 11.48 46.256 11.832 46.288 12.184C46.336 12.536 46.36 12.896 46.36 13.264C46.36 13.664 46.344 14.064 46.312 14.464C46.28 14.848 46.232 15.248 46.168 15.664C46.504 15.488 46.912 15.328 47.392 15.184C47.872 15.04 48.36 14.92 48.856 14.824C49.368 14.728 49.824 14.68 50.224 14.68C50.48 14.68 50.704 14.704 50.896 14.752C51.056 15.088 51.136 15.496 51.136 15.976C51.136 16.744 50.944 17.528 50.56 18.328L50.392 18.4C49.8 18.08 49.112 17.832 48.328 17.656C47.56 17.48 46.752 17.36 45.904 17.296C45.744 18.208 45.592 19.136 45.448 20.08C45.304 21.024 45.232 21.992 45.232 22.984C45.232 23.192 45.232 23.408 45.232 23.632C45.248 23.856 45.264 24.08 45.28 24.304C44.752 24.832 44.128 25.096 43.408 25.096ZM55.8651 25.096C55.1451 25.096 54.5371 24.8 54.0411 24.208C53.5611 23.616 53.3211 22.824 53.3211 21.832C53.3211 21.288 53.3851 20.704 53.5131 20.08C53.6411 19.456 53.7691 18.864 53.8971 18.304C54.0091 17.888 54.0971 17.504 54.1611 17.152C54.2411 16.784 54.2811 16.488 54.2811 16.264C54.2811 15.976 54.2171 15.768 54.0891 15.64C53.9771 15.512 53.8411 15.448 53.6811 15.448C53.5211 15.448 53.3611 15.504 53.2011 15.616C53.0411 15.712 52.9131 15.864 52.8171 16.072L52.6251 16C52.6251 15.344 52.7851 14.784 53.1051 14.32C53.4251 13.856 53.8331 13.504 54.3291 13.264C54.8251 13.024 55.3291 12.904 55.8411 12.904C56.2571 12.904 56.6571 12.992 57.0411 13.168C57.4251 13.328 57.7371 13.584 57.9771 13.936C58.2331 14.288 58.3611 14.728 58.3611 15.256C58.3611 15.576 58.3131 15.96 58.2171 16.408C58.1371 16.856 58.0411 17.32 57.9291 17.8C57.8171 18.296 57.7051 18.8 57.5931 19.312C57.4971 19.808 57.4491 20.248 57.4491 20.632C57.4491 20.984 57.5051 21.272 57.6171 21.496C57.7291 21.72 57.8971 21.832 58.1211 21.832C58.5371 21.832 59.0011 21.448 59.5131 20.68C60.0411 19.912 60.4651 18.88 60.7851 17.584C60.8491 17.328 60.9051 17.056 60.9531 16.768C61.0011 16.48 61.0251 16.184 61.0251 15.88C61.0251 15.64 61.0091 15.4 60.9771 15.16C60.9451 14.904 60.8971 14.648 60.8331 14.392V14.224C61.0891 13.792 61.4171 13.464 61.8171 13.24C62.2331 13.016 62.6491 12.904 63.0651 12.904C63.6251 12.904 64.1291 13.096 64.5771 13.48C65.0251 13.864 65.2491 14.424 65.2491 15.16C65.2491 15.592 65.1691 16.096 65.0091 16.672C64.8491 17.232 64.6731 17.816 64.4811 18.424C64.2891 19.016 64.1131 19.6 63.9531 20.176C63.7931 20.752 63.7131 21.264 63.7131 21.712C63.7131 22.368 63.9451 22.696 64.4091 22.696C64.5371 22.696 64.6891 22.664 64.8651 22.6C65.0571 22.52 65.2331 22.368 65.3931 22.144L65.5611 22.192C65.5611 22.768 65.4011 23.28 65.0811 23.728C64.7771 24.16 64.3851 24.496 63.9051 24.736C63.4251 24.976 62.9291 25.096 62.4171 25.096C61.7611 25.096 61.1691 24.856 60.6411 24.376C60.1291 23.896 59.8731 23.112 59.8731 22.024V21.976C59.2171 23.096 58.5371 23.896 57.8331 24.376C57.1291 24.856 56.4731 25.096 55.8651 25.096ZM69.9979 25.096C69.2779 25.096 68.6699 24.8 68.1739 24.208C67.6939 23.616 67.4539 22.824 67.4539 21.832C67.4539 21.288 67.5179 20.704 67.6459 20.08C67.7739 19.456 67.9019 18.864 68.0299 18.304C68.1419 17.888 68.2299 17.504 68.2939 17.152C68.3739 16.784 68.4139 16.488 68.4139 16.264C68.4139 15.976 68.3499 15.768 68.2219 15.64C68.1099 15.512 67.9739 15.448 67.8139 15.448C67.6539 15.448 67.4939 15.504 67.3339 15.616C67.1739 15.712 67.0459 15.864 66.9499 16.072L66.7579 16C66.7579 15.344 66.9179 14.784 67.2379 14.32C67.5579 13.856 67.9659 13.504 68.4619 13.264C68.9579 13.024 69.4619 12.904 69.9739 12.904C70.3899 12.904 70.7899 12.992 71.1739 13.168C71.5579 13.328 71.8699 13.584 72.1099 13.936C72.3659 14.288 72.4939 14.728 72.4939 15.256C72.4939 15.576 72.4459 15.96 72.3499 16.408C72.2699 16.856 72.1739 17.32 72.0619 17.8C71.9499 18.296 71.8379 18.8 71.7259 19.312C71.6299 19.808 71.5819 20.248 71.5819 20.632C71.5819 20.984 71.6379 21.272 71.7499 21.496C71.8619 21.72 72.0299 21.832 72.2539 21.832C72.6699 21.832 73.1339 21.448 73.6459 20.68C74.1739 19.912 74.5979 18.88 74.9179 17.584C74.9819 17.328 75.0379 17.056 75.0859 16.768C75.1339 16.48 75.1579 16.184 75.1579 15.88C75.1579 15.64 75.1419 15.4 75.1099 15.16C75.0779 14.904 75.0299 14.648 74.9659 14.392V14.224C75.2219 13.792 75.5499 13.464 75.9499 13.24C76.3659 13.016 76.7819 12.904 77.1979 12.904C77.7579 12.904 78.2619 13.096 78.7099 13.48C79.1579 13.864 79.3819 14.424 79.3819 15.16C79.3819 15.592 79.3019 16.096 79.1419 16.672C78.9819 17.232 78.8059 17.816 78.6139 18.424C78.4219 19.016 78.2459 19.6 78.0859 20.176C77.9259 20.752 77.8459 21.264 77.8459 21.712C77.8459 22.368 78.0779 22.696 78.5419 22.696C78.6699 22.696 78.8219 22.664 78.9979 22.6C79.1899 22.52 79.3659 22.368 79.5259 22.144L79.6939 22.192C79.6939 22.768 79.5339 23.28 79.2139 23.728C78.9099 24.16 78.5179 24.496 78.0379 24.736C77.5579 24.976 77.0619 25.096 76.5499 25.096C75.8939 25.096 75.3019 24.856 74.7739 24.376C74.2619 23.896 74.0059 23.112 74.0059 22.024V21.976C73.3499 23.096 72.6699 23.896 71.9659 24.376C71.2619 24.856 70.6059 25.096 69.9979 25.096ZM84.3708 25.096C83.7948 25.096 83.2508 24.896 82.7388 24.496C82.2428 24.096 81.8348 23.512 81.5148 22.744C81.2108 21.976 81.0588 21.048 81.0588 19.96C81.0588 18.84 81.2188 17.84 81.5388 16.96C81.8588 16.08 82.2748 15.336 82.7868 14.728C83.3148 14.104 83.8828 13.632 84.4908 13.312C85.1148 12.992 85.7228 12.832 86.3148 12.832C86.9708 12.832 87.5548 13.04 88.0668 13.456C88.5788 13.856 88.9308 14.488 89.1228 15.352C89.2668 14.552 89.3868 13.792 89.4828 13.072C89.5948 12.336 89.6508 11.688 89.6508 11.128C89.6508 10.392 89.5548 9.856 89.3628 9.52V9.376C89.7308 8.96 90.1308 8.656 90.5628 8.464C91.0108 8.256 91.4348 8.152 91.8348 8.152C92.3628 8.152 92.8108 8.32 93.1788 8.656C93.5468 8.976 93.7308 9.44 93.7308 10.048C93.7308 10.384 93.6748 10.88 93.5628 11.536C93.4508 12.192 93.3148 12.944 93.1548 13.792C92.9948 14.624 92.8268 15.488 92.6508 16.384C92.4908 17.264 92.3548 18.112 92.2428 18.928C92.1308 19.728 92.0748 20.424 92.0748 21.016C92.0748 21.512 92.1228 21.912 92.2188 22.216C92.3308 22.504 92.5068 22.648 92.7468 22.648C92.9228 22.648 93.0988 22.592 93.2748 22.48C93.4668 22.352 93.5948 22.208 93.6588 22.048L93.8268 22.168C93.8268 22.696 93.6588 23.184 93.3228 23.632C92.9868 24.064 92.5628 24.416 92.0508 24.688C91.5388 24.96 91.0108 25.096 90.4668 25.096C89.8748 25.096 89.4028 24.936 89.0508 24.616C88.7148 24.28 88.4748 23.856 88.3308 23.344C88.1868 22.832 88.1068 22.304 88.0908 21.76C87.5948 22.912 87.0108 23.76 86.3388 24.304C85.6828 24.832 85.0268 25.096 84.3708 25.096ZM85.9788 22.048C86.3948 22.048 86.8588 21.672 87.3708 20.92C87.8828 20.168 88.3308 19.072 88.7148 17.632L88.8588 16.888C88.6028 16.296 88.3228 15.88 88.0188 15.64C87.7308 15.384 87.4508 15.256 87.1788 15.256C86.7788 15.256 86.4028 15.48 86.0508 15.928C85.6988 16.36 85.4108 16.92 85.1868 17.608C84.9788 18.28 84.8748 18.992 84.8748 19.744C84.8748 20.464 84.9788 21.032 85.1868 21.448C85.3948 21.848 85.6588 22.048 85.9788 22.048Z" fill="#E5F1A9"/>
</g>
<defs>
<clipPath id="clip0_36_491">
<rect width="55" height="20" fill="white" transform="translate(40 6)"/>
</clipPath>
</defs>
</svg>
