<svg width="213" height="214" viewBox="0 0 213 214" fill="none" xmlns="http://www.w3.org/2000/svg">
<path fill-rule="evenodd" clip-rule="evenodd" d="M125.718 50.2063L115.011 39.5L93.8888 60.621L84.5122 51.2684C84.0532 51.4211 83.7073 51.6799 83.2244 52.136C82.7693 52.5657 82.2249 53.1559 81.6124 53.8869C80.3867 55.3497 78.8769 57.3901 77.2481 59.8703C73.9903 64.8308 70.2479 71.5639 67.345 78.9788C62.4992 91.3566 59.9603 105.727 66.0496 116.892C64.2459 118.658 62.3333 120.69 60.5579 122.846C57.0331 127.128 54.0116 131.946 53.5091 136.167C52.8921 141.349 52.4844 147.283 54.4449 153.196C56.4088 159.118 60.7386 164.989 69.5371 170.07C78.3834 175.178 87.445 174.018 95.1867 170.264C102.922 166.513 109.364 160.163 113.021 154.833C120.221 144.338 132.369 143.172 139.008 148.966C144.363 153.639 145.281 159.339 145.082 161.563L145.061 161.801L145.296 161.844C147.245 162.196 150.252 162.446 152.943 162.045C155.611 161.648 158.094 160.588 158.782 158.208C159.203 156.749 159.001 154.542 158.289 152.037C157.573 149.52 156.331 146.664 154.624 143.887C151.216 138.342 145.929 133.07 139.24 131.507C132.612 129.958 127.02 130.017 122.101 131.402C117.182 132.787 112.956 135.494 109.05 139.213C105.147 142.93 100.803 148.474 96.0707 152.64C91.3221 156.82 86.2436 159.567 80.838 157.886C69.9009 154.483 66.6414 143.44 69.9056 136.307C71.218 133.44 73.4837 130.682 75.7955 128.395C76.0871 128.107 76.3792 127.826 76.6699 127.553C81.2381 130.053 86.3731 131.1 91.699 131.132C99.5126 131.179 107.75 129.041 115.252 126.09C122.756 123.138 129.538 119.366 134.446 116.132C136.9 114.515 138.89 113.029 140.268 111.844C140.957 111.253 141.499 110.731 141.87 110.303C142.268 109.844 142.483 109.522 142.483 109.091L129.834 96.4633L150.889 75.313L140.182 64.6062L119.264 85.7255L113.516 80.1982L113.513 80.1948L104.609 71.3138L125.718 50.2063ZM77.7992 126.53C83.1124 129.478 88.5897 129.74 91.6163 126.714C95.7546 122.576 93.7445 113.857 87.1267 107.239C80.5089 100.622 71.7893 98.6118 67.6511 102.75C64.7991 105.602 64.8673 110.629 67.3513 115.645C68.2945 114.761 69.1877 113.966 69.9914 113.282C69.1833 110.489 69.511 107.883 71.1478 106.246C74.1367 103.258 80.359 104.634 85.0456 109.32C89.7322 114.007 91.1085 120.228 88.1196 123.217C86.3958 124.941 83.5965 125.213 80.6367 124.235C79.7989 124.855 78.8239 125.631 77.7992 126.53ZM99.4341 66.1521L120.179 45.4078L124.978 50.2063L104.239 70.9445L99.4341 66.1521ZM150.15 75.3138L129.467 96.0914L124.603 91.1054L145.351 70.5143L150.15 75.3138ZM84.6865 55.3462L97.3559 68.0149C97.458 68.117 97.458 68.2826 97.3559 68.3847C97.2537 68.4868 97.0882 68.4868 96.986 68.3847L84.6648 56.0641C82.6245 57.952 78.3324 63.5769 74.4991 71.3343C70.5518 79.3224 67.1088 89.537 67.1088 100.205C67.1088 100.349 66.9917 100.466 66.8473 100.466C66.7029 100.466 66.5858 100.349 66.5858 100.205C66.5858 89.43 70.0615 79.1342 74.0302 71.1026C77.9954 63.0783 82.4706 57.2791 84.5024 55.5068L84.6865 55.3462ZM133.091 132.791C133.1 132.935 132.99 133.059 132.846 133.068C118.763 133.957 112.203 141.371 104.136 150.49C103.187 151.561 102.218 152.657 101.213 153.768C99.3046 155.879 96.6487 157.376 94.1375 158.405C91.6235 159.436 89.2339 160.006 87.8372 160.254C87.695 160.279 87.5592 160.184 87.534 160.042C87.5088 159.9 87.6037 159.764 87.7459 159.739C89.1137 159.496 91.4662 158.935 93.9391 157.922C96.4147 156.907 98.9904 155.447 100.826 153.417C101.827 152.31 102.795 151.215 103.744 150.142C111.804 141.027 118.504 133.449 132.813 132.546C132.957 132.537 133.081 132.646 133.091 132.791Z" fill="#FFFFE3"/>
</svg>
