<svg width="20" height="20" viewBox="0 0 20 20" fill="none" xmlns="http://www.w3.org/2000/svg">
<path d="M15.625 11.875L17.5 13.75L15.625 15.625M15.625 4.375L17.5 6.25L15.625 8.125M2.5 13.75H5.82773C6.34216 13.75 6.84862 13.623 7.30218 13.3803C7.75574 13.1375 8.14236 12.7866 8.42773 12.3586L10 10" stroke="#FBFFE5" stroke-width="1.5" stroke-linecap="round" stroke-linejoin="round"/>
<path d="M2.5 6.25H5.82773C6.34216 6.25001 6.84862 6.37701 7.30218 6.61974C7.75574 6.86246 8.14236 7.2134 8.42773 7.64141L11.5723 12.3586C11.8576 12.7866 12.2443 13.1375 12.6978 13.3803C13.1514 13.623 13.6578 13.75 14.1723 13.75H16.25M16.25 6.25H14.1723C13.6578 6.25001 13.1514 6.37701 12.6978 6.61974C12.2443 6.86246 11.8576 7.2134 11.5723 7.64141L11.25 8.125" stroke="#FBFFE5" stroke-width="1.5" stroke-linecap="round" stroke-linejoin="round"/>
</svg>
