<svg width="24" height="24" viewBox="0 0 24 24" fill="none" xmlns="http://www.w3.org/2000/svg">
<path d="M20.3926 5.15914C19.8562 5.15914 19.455 5.64683 19.2117 6.05811C18.816 6.22972 18.1062 6.52348 17.3496 6.7729C15.5027 7.38064 14.9836 7.19426 14.9115 7.16004L14.8412 7.01872C14.1639 5.64936 12.3609 2.00806 8.47745 2.16092C6.0819 2.25284 4.462 3.80244 3.70975 4.71758C2.6987 5.94781 2.09167 7.43108 2.23262 8.32536C2.32886 8.9345 2.47914 10.4686 2.61465 12.0823C2.49104 12.0924 2.37536 12.1641 2.3162 12.2831C2.22573 12.464 2.2989 12.6843 2.47947 12.774C2.51228 12.7906 2.54326 12.8058 2.67479 12.8159C2.704 13.181 2.73245 13.5443 2.75804 13.8954C2.55981 13.9087 2.4077 14.0785 2.41707 14.2778C2.42645 14.4736 2.58831 14.6264 2.78261 14.6264C2.7887 14.6264 2.79414 14.6264 2.80023 14.6257L2.81031 14.6253C2.84129 15.0683 2.86651 15.4771 2.88564 15.8277C2.7234 15.8768 2.61203 16.0339 2.62717 16.2098C2.64123 16.3745 2.76306 16.5039 2.91732 16.536C2.92056 16.6402 2.92201 16.731 2.92201 16.8057C2.92201 17.3211 3.31164 17.6906 4.07907 17.9029C4.15079 17.9231 4.22725 17.9414 4.30506 17.9591L3.90892 21.4626L4.46003 21.5852C4.50437 21.5949 5.55582 21.827 6.29617 21.827C6.64328 21.827 6.92411 21.5456 6.92411 21.1991C6.92411 20.8527 6.64332 20.5719 6.29617 20.5719C5.9934 20.5719 5.60125 20.5182 5.28512 20.4652L5.54861 18.1385C6.103 18.1861 6.71251 18.2063 7.33178 18.2063C7.46082 18.2063 7.5902 18.2052 7.71925 18.2037C7.71817 18.2203 7.71779 18.2376 7.71779 18.2549L7.78557 21.7758L8.35726 21.8162C8.37995 21.8183 8.74112 21.8436 9.2065 21.8436C9.44729 21.8436 9.71654 21.8364 9.98073 21.8162C10.3268 21.7898 10.5852 21.4878 10.5582 21.1425C10.5322 20.7968 10.2294 20.5384 9.8845 20.5647C9.58642 20.5874 9.27498 20.5899 9.01829 20.5863L8.97287 18.2304C8.9725 18.2077 8.97072 18.1857 8.96786 18.1633C9.40829 18.1414 9.83401 18.1122 10.224 18.0776C10.5041 18.053 10.7733 18.026 11.0318 17.9972C11.0314 18.0192 11.0314 18.0404 11.0332 18.062L11.3079 21.7729L11.9552 21.7008C12.1441 21.6796 13.1134 21.5617 13.64 21.2982C13.9503 21.1436 14.0762 20.7662 13.9208 20.4566C13.7661 20.1458 13.3891 20.0208 13.0791 20.175C12.9515 20.2388 12.7133 20.3012 12.4613 20.3513L12.285 17.9695C12.2814 17.9211 12.2724 17.875 12.2587 17.8303C12.8422 17.7344 13.3487 17.6231 13.7762 17.4969L14.6466 21.047L15.2393 20.9244C16.3837 20.6876 17.0645 20.5171 17.2639 20.4176C17.5739 20.2623 17.6993 19.8852 17.544 19.5752C17.3912 19.2699 17.0238 19.1442 16.7164 19.288C16.5909 19.3359 16.1033 19.4527 15.5767 19.5687L14.9848 17.1555C14.9722 17.1036 14.9524 17.0549 14.9282 17.0092C15.1387 16.8736 15.2919 16.7277 15.386 16.5709C15.7501 15.9635 15.5089 15.0717 15.204 13.9421C15.0054 13.2071 14.7804 12.3748 14.7779 11.7249C14.8057 11.6741 14.965 11.5206 15.4033 11.3666C16.4345 11.0055 18.3817 10.9063 19.3924 11.2282C19.6357 11.5548 19.9724 11.854 20.3923 11.854C21.6864 11.854 21.7869 9.29154 21.7869 8.50648C21.7869 7.72142 21.6866 5.15914 20.3926 5.15914ZM3.93507 12.8173C4.80554 12.8007 6.22464 12.7589 8.55789 12.6775C10.5544 12.6082 12.5553 12.5319 13.5872 12.4918C13.6298 12.7823 13.6899 13.0768 13.7588 13.3677L4.01293 13.8345C3.98879 13.5032 3.96245 13.1619 3.93507 12.8173ZM4.06445 14.5651L13.9444 14.0922C13.9607 14.1514 13.9768 14.2115 13.9923 14.2695C14.0388 14.4433 14.0933 14.644 14.1437 14.8452L4.13617 15.7114C4.11784 15.3707 4.09328 14.9829 4.06445 14.5651ZM14.3067 15.9237C14.0144 16.212 12.2438 16.7083 9.26289 16.8907C6.45929 17.0619 4.66243 16.8421 4.17545 16.6168C4.17362 16.5631 4.17221 16.505 4.17039 16.4434L14.2966 15.5668C14.3193 15.7225 14.3265 15.8502 14.3067 15.9237ZM14.3485 10.4726C13.6661 10.8762 13.5231 11.3708 13.5231 11.7143C13.5231 11.7302 13.5245 11.7464 13.5245 11.7619C10.1954 11.8917 5.91536 12.0438 3.87517 12.0863C3.73459 10.4037 3.57639 8.786 3.47256 8.12961C3.40876 7.72662 3.79262 6.59342 4.67968 5.51492C5.29787 4.76197 6.61998 3.48814 8.52536 3.41492C11.5961 3.2974 13.0829 6.29529 13.7162 7.57564L13.798 7.74106C14.3643 8.8729 16.1835 8.45511 17.5024 8.04204C17.9061 7.9159 18.2994 7.77565 18.6526 7.64122C18.6039 7.92631 18.5787 8.21722 18.5787 8.50667C18.5787 8.954 18.6403 9.40451 18.7539 9.83201C17.2512 9.65647 15.3415 9.88573 14.3485 10.4726ZM20.3064 10.3453C20.2989 10.3334 20.2916 10.3201 20.284 10.3074L20.3115 10.258C20.2873 10.2447 20.261 10.2328 20.2358 10.2195C20.0372 9.84209 19.8346 9.23904 19.8346 8.50662C19.8346 7.68697 20.0883 7.02767 20.3064 6.66762C20.4196 7.03456 20.532 7.66676 20.532 8.50662C20.532 9.34648 20.4196 9.97873 20.3064 10.3453ZM12.5816 7.79187C12.5816 8.14803 12.3707 8.43673 12.1104 8.43673C11.8505 8.43673 11.6401 8.14803 11.6401 7.79187C11.6401 7.43506 11.8505 7.14668 12.1104 7.14668C12.3707 7.14668 12.5816 7.43501 12.5816 7.79187ZM10.6986 7.58244C10.6986 7.93892 10.4877 8.22729 10.2278 8.22729C9.96756 8.22729 9.75704 7.93897 9.75704 7.58244C9.75704 7.22633 9.96756 6.93725 10.2278 6.93725C10.4877 6.93725 10.6986 7.22633 10.6986 7.58244Z" fill="#CF9038"/>
</svg>
