<svg width="56" height="56" viewBox="0 0 56 56" fill="none" xmlns="http://www.w3.org/2000/svg">
<path d="M43.0937 24.6094C41.8558 23.374 40.1783 22.6802 38.4294 22.6802C36.6805 22.6802 35.003 23.374 33.7651 24.6094L32.4526 25.9219C31.7078 26.6666 31.1312 27.5621 30.7614 28.5482C30.3916 29.5344 30.2373 30.5882 30.3088 31.639L30.3537 32.2952C30.3751 32.6172 30.32 32.9397 30.1928 33.2363C30.0656 33.5328 29.87 33.7951 29.622 34.0015L27.5045 35.7985L26.2171 34.7047C25.8905 34.4321 25.633 34.086 25.4657 33.6948C25.2984 33.3036 25.2261 32.8783 25.2546 32.4538L25.2995 31.7976C25.3647 30.8403 25.224 29.8801 24.8871 28.9817C24.5501 28.0833 24.0247 27.2675 23.346 26.5891L18.8365 22.0796L17.0056 23.9105L19.9871 26.891L18.5937 28.2855L15.6132 25.3051L13.7156 27.1994L16.6873 30.1722L15.2949 31.5646L12.3232 28.5918L10.4321 30.4829L14.9417 34.9924C15.62 35.671 16.4358 36.1965 17.3342 36.5335C18.2326 36.8704 19.1928 37.011 20.1501 36.9458L20.8063 36.901C21.2309 36.8724 21.6561 36.9448 22.0474 37.112C22.4386 37.2793 22.7847 37.5368 23.0573 37.8635L23.8984 38.8544L17.2265 44.519C16.559 45.0765 16.0793 45.8261 15.8528 46.6659C15.6263 47.5056 15.6639 48.3947 15.9605 49.2123C16.2571 50.0299 16.7983 50.7364 17.5105 51.2356C18.2228 51.7348 19.0714 52.0025 19.9412 52.0024C20.0046 52.0024 20.0681 52.0024 20.1315 52.0024C20.7182 51.9751 21.2928 51.8261 21.8189 51.565C22.3449 51.3038 22.811 50.9362 23.1874 50.4854L28.4757 44.2455L33.5803 50.2612C33.899 50.642 34.2935 50.9526 34.7386 51.173C35.1837 51.3935 35.6697 51.5191 36.1659 51.5419C36.2195 51.5419 36.2753 51.5419 36.3256 51.5419C37.0609 51.5428 37.7786 51.317 38.381 50.8954C38.9835 50.4738 39.4414 49.8768 39.6924 49.1856C39.9434 48.4945 39.9754 47.7428 39.7839 47.0328C39.5925 46.3228 39.1869 45.6891 38.6224 45.2179L32.236 39.8126L33.7049 38.079C33.9112 37.8322 34.1729 37.6377 34.4687 37.5113C34.7645 37.3849 35.0859 37.3302 35.4068 37.3516L36.0631 37.3954C37.1142 37.4672 38.1685 37.3128 39.1549 36.9426C40.1413 36.5725 41.0369 35.9951 41.7812 35.2494L43.0937 33.9369C44.3288 32.6991 45.0224 31.0218 45.0224 29.2732C45.0224 27.5245 44.3288 25.8473 43.0937 24.6094ZM41.7024 32.5457L40.3899 33.8582C39.8441 34.4043 39.1876 34.8271 38.4646 35.0982C37.7417 35.3693 36.969 35.4824 36.1987 35.4299L35.5424 35.3851C34.9125 35.3418 34.2813 35.4481 33.7002 35.6952C33.1191 35.9423 32.6047 36.3232 32.1988 36.8069L21.6803 49.2188C21.4788 49.4614 21.2289 49.6592 20.9466 49.7996C20.6642 49.9401 20.3557 50.02 20.0407 50.0343C19.7257 50.0486 19.4112 49.9971 19.1173 49.8828C18.8234 49.7686 18.5565 49.5943 18.3339 49.371C18.1112 49.1477 17.9376 48.8804 17.8242 48.5862C17.7108 48.292 17.6601 47.9773 17.6752 47.6624C17.6904 47.3474 17.7712 47.0391 17.9124 46.7572C18.0536 46.4752 18.2521 46.2259 18.4953 46.0251L30.8863 35.5065C31.3715 35.1 31.7538 34.5847 32.002 34.0026C32.2502 33.4204 32.3574 32.7878 32.3148 32.1563L32.2699 31.5001C32.2175 30.7297 32.3307 29.9571 32.6018 29.2342C32.8729 28.5112 33.2956 27.8547 33.8417 27.3088L35.1542 25.9963C35.5839 25.5666 36.0941 25.2257 36.6556 24.9931C37.2171 24.7605 37.8189 24.6408 38.4267 24.6408C39.0344 24.6408 39.6362 24.7605 40.1977 24.9931C40.7592 25.2257 41.2694 25.5666 41.6992 25.9963C42.1289 26.4261 42.4698 26.9362 42.7024 27.4977C42.935 28.0592 43.0547 28.6611 43.0547 29.2688C43.0547 29.8766 42.935 30.4784 42.7024 31.0399C42.4698 31.6014 42.1289 32.1116 41.6992 32.5413L41.7024 32.5457Z" fill="#E5F1A9"/>
<path d="M27.5504 19.4874C27.6248 19.4874 29.8659 19.4578 30.2848 19.4217C33.2379 19.1669 35.5643 18.1705 37.2235 16.45C39.8485 13.7321 40.0739 9.91706 39.9776 7.88487C39.949 7.23269 39.6771 6.6149 39.2154 6.15329C38.7538 5.69168 38.136 5.41976 37.4839 5.39112C35.4506 5.29487 31.6367 5.52347 28.9187 8.14409C28.6366 8.41748 28.3735 8.70982 28.1312 9.01909C27.8889 8.70982 27.6258 8.41748 27.3437 8.14409C24.6257 5.51909 20.8107 5.29378 18.7785 5.39112C18.1264 5.41976 17.5086 5.69168 17.047 6.15329C16.5854 6.6149 16.3134 7.23269 16.2848 7.88487C16.1885 9.91706 16.4171 13.731 19.0378 16.45C20.9846 18.4658 23.8437 19.4874 27.5504 19.4874ZM30.2848 9.56159C32.2207 7.69565 34.9529 7.34237 36.7445 7.34237C36.9764 7.34237 37.1929 7.34784 37.3898 7.35768C37.5531 7.3657 37.7076 7.4344 37.8229 7.55033C37.9382 7.66625 38.0061 7.82105 38.0132 7.9844C38.0942 9.6994 37.917 12.9063 35.8082 15.0938C34.5264 16.4227 32.6823 17.2124 30.3165 17.4497C30.358 17.2655 30.38 17.0774 30.3821 16.8886C30.4073 14.5392 30.0289 12.5224 29.2534 10.8555C29.5437 10.3835 29.8908 9.94896 30.287 9.56159H30.2848ZM18.2535 7.9844C18.262 7.82237 18.3301 7.66921 18.4449 7.55448C18.5596 7.43975 18.7128 7.37159 18.8748 7.36315C20.5898 7.28112 23.7967 7.4594 25.9842 9.56706C27.4607 10.9889 28.2701 13.1053 28.3992 15.8594C27.5379 14.6013 26.3102 13.6389 24.8828 13.1032L24.2757 14.9385C24.3698 14.9713 26.1953 15.6144 27.126 17.5186C24.1926 17.4475 21.9493 16.6305 20.4629 15.0894C18.3498 12.8975 18.1715 9.69394 18.2535 7.9844Z" fill="#E5F1A9"/>
</svg>
